<?xml version="1.0" encoding="utf-8"?>

<!DOCTYPE svg PUBLIC "-//W3C//DTD SVG 1.1//EN" "http://www.w3.org/Graphics/SVG/1.1/DTD/svg11.dtd" [
	<!ENTITY ns_svg "http://www.w3.org/2000/svg">
	<!ENTITY ns_xlink "http://www.w3.org/1999/xlink">
]>
<svg  version="1.1" id="Layer_1" xmlns="&ns_svg;" xmlns:xlink="&ns_xlink;" width="299.785" height="54.621"
	 viewBox="0 0 299.785 54.621" overflow="visible" enable-background="new 0 0 299.785 54.621" xml:space="preserve">
<path fill="#F4B752" d="M27.117,12.059l-2,7.086h-5.068l-3.303,11.913c-1.04,3.654-1.238,4.548,3.625,5.039l-1.934,7.053
	l-7.727,0.432c-10.217,0.603-12.092-2.043-9.888-9.908L4.83,19.146H2.955l2-7.086h1.882l1.685-6.068l16.135-3.307l-2.585,9.375
	L27.117,12.059"/>
<path fill="#F4B752" d="M57.425,11.356c5.698-0.099,10.056,1.926,8.108,9.016l-3.252,11.667c-0.842,3.012-0.842,3.398,0.652,4.096
	l-1.948,6.943H44.739c0.051-1.957-0.33-1.803,1.553-8.481l0.33-1.187l2.52-9.079c0.447-1.582,1.025-4.014-2.585-4.314
	c-0.652,0-1.304,0.106-2,0.355l-3.274,11.667c-0.857,2.807-1.04,3.355,0.718,4.096l-1.948,6.943H21.06l1.948-6.943
	c2.197-0.836,2.336-1.582,2.981-3.903l5.691-20.388c0.52-2.062,0.842-3.391-0.835-4.079l1.934-6.947h17.212l-3.494,12.564
	C48.694,12.48,51.727,11.407,57.425,11.356"/>
<path fill="#F4B752" d="M89.6,23.276h-5.955c1.106-3.937,2.197-4.442,4.138-4.38C90.516,18.933,90.325,20.731,89.6,23.276
	 M68.243,23.613l-2.329,8.434c-0.645,2.358-1.033,4.277-0.842,5.765c0.579,4.622,5.625,6.256,17.783,6.204
	c6.16-0.044,12.576-1.582,17.043-3.991l2.197-7.793H86.817l-0.322,1.149c-0.974,3.486-2.783,3.441-3.838,3.384
	c-2.476-0.044-2.41-1.466-1.824-3.537l0.784-2.871h21.006l2.08-7.336c2.593-9.404-3.259-11.378-15.286-11.378
	C73.091,11.642,70.191,16.772,68.243,23.613"/>
<path fill="#1B2E66" d="M132.095,9.097c-3.647-0.052-4.548,3.112-4.351,4.156c0.454,2.45,8.232,3.344,12.334,4.475
	c8.101,2.274,9.207,6.413,7.646,11.85l-0.059,0.194c-2.468,8.829-9.478,14.089-25.217,14.14c-8.364,0.051-14.656-1.473-18.816-4.424
	l3.12-11.349h16.853c-0.256,1.079-0.571,2.131-0.835,3.163c-0.322,1.08-0.967,3.453,2.644,3.506c1.289,0.043,3.435-0.535,4.27-3.256
	c1.172-3.856-1.348-4.545-8.335-5.882c-6.746-1.325-13.879-2.9-11.147-12.726C112.671,4.116,119.988,0,133.765,0
	c8.123,0,14.033,1.124,19.277,4.416l-2.776,9.961h-16.164l0.198-0.787C135.208,10.334,134.615,9.141,132.095,9.097"/>
<path fill="#1B2E66" d="M174.67,21.075c0.418-1.461,0.484-2.41,0.059-2.926c-0.276-0.531-0.893-0.78-1.992-0.78
	c-2.276,0-3.17,0.571-4.145,4.127l-2.945,10.492c-1.018,3.758-0.271,4.219,1.78,4.277c1.935,0,3.179-0.571,4.476-5.27l0.49-1.726
	h15.25l-2.828,10.188c-4.416,2.725-10.772,4.453-20.323,4.504c-16.187,0.052-16.802-5.545-15.015-12.088l3.09-10.958
	c1.947-6.899,6.086-11.199,21.131-11.25c9.609-0.044,14.912,1.783,18.287,4.087l-2.467,8.994h-15.265l0.278-1.051L174.67,21.075"/>
<path fill="#1B2E66" d="M204.869,31.775l2.607-9.503c0.834-2.761,1.441-4.966,4.476-4.899c2.014,0,2.834,0.879,1.677,4.899
	l-2.637,9.503c-1.297,4.594-2.762,4.549-4.401,4.49C203.697,36.207,203.982,34.8,204.869,31.775 M227.544,30.732l2.409-8.566
	c2.623-9.353-0.336-12.598-16.889-12.502c-16.313,0.106-19.353,4.135-21.703,12.502l-2.408,8.566
	c-2.975,10.499,0.139,13.282,16.113,13.238C219.693,43.912,224.645,40.975,227.544,30.732"/>
<path fill="#1B2E66" d="M259.618,9.591l1.846,0.157l-3.099,11.25c-5.854,0-8.54,1.201-9.997,6.284l-0.896,3.197
	c-0.549,2.052-2.211,4.043,0.82,5.464l-2.059,7.354h-20.551l2.071-7.471c0.96-0.365,2.197-0.732,3.238-4.357l2.614-9.323
	c0.769-2.765,0.894-3.344-0.748-4.34l2.052-7.478h17.446l-0.756,2.614C254.504,10.221,256.578,9.591,259.618,9.591"/>
<path fill="#1B2E66" d="M283.04,21.932h-6.356c1.18-4.105,2.352-4.629,4.416-4.57C284,17.417,283.788,19.292,283.04,21.932
	 M260.298,22.298l-2.476,8.939c-0.695,2.522-1.113,4.56-0.9,6.128c0.622,4.928,6.006,6.649,18.939,6.605
	c6.556-0.059,13.396-1.678,18.187-4.24l2.329-8.273h-16.304l-0.353,1.205c-1.031,3.707-2.966,3.662-4.078,3.604
	c-2.646-0.06-2.564-1.567-1.941-3.75l0.842-3.039h22.369l2.227-7.793c2.762-9.906-3.449-12.023-16.312-12.023
	C265.477,9.66,262.364,15.113,260.298,22.298"/>
<polygon fill="#F4B752" points="141.25,54.621 143.411,47.046 101.583,47.046 99.429,54.621 "/>
</svg>
